<svg width="61" height="64" viewBox="0 0 61 64" fill="none" xmlns="http://www.w3.org/2000/svg">
<path d="M47.8333 45.75C50.4583 47.5 52.3333 50.625 52.3333 54C52.3333 59.625 47.8333 64 42.3333 64C36.7083 64 32.3333 59.625 32.3333 54C32.3333 53 32.4583 52 32.7083 51L14.5833 35.125C13.2083 35.75 11.8333 36 10.3333 36C4.70831 36 0.333313 31.625 0.333313 26C0.333313 20.5 4.70831 16 10.3333 16C12.9583 16 15.4583 17.125 17.3333 19L40.3333 9.75C40.4583 4.375 44.8333 0 50.3333 0C55.8333 0 60.3333 4.5 60.3333 10C60.3333 14.75 56.9583 18.75 52.5833 19.75L47.8333 45.75ZM19.8333 29.125L37.9583 45C38.5833 44.75 39.3333 44.5 39.9583 44.375L44.7083 18.375C44.2083 18 43.7083 17.625 43.2083 17.125L20.2083 26.375C20.2083 27.25 20.0833 28.25 19.8333 29.125Z" fill="#2563EB"/>
</svg>
