<svg width="81" height="64" viewBox="0 0 81 64" fill="none" xmlns="http://www.w3.org/2000/svg">
<path d="M4.66669 15C2.16669 13.625 0.666687 11 0.666687 8C0.666687 3.625 4.16669 0 8.66669 0C11.5417 0 14.1667 1.625 15.5417 4H41.6667C43.0417 1.625 45.6667 0 48.6667 0C53.0417 0 56.6667 3.625 56.6667 8C56.6667 11 55.0417 13.625 52.6667 15V29.125C55.0417 30.5 56.6667 33.125 56.6667 36C56.6667 40.5 53.0417 44 48.6667 44C45.6667 44 43.0417 42.5 41.6667 40H15.5417C14.1667 42.5 11.5417 44 8.66669 44C4.16669 44 0.666687 40.5 0.666687 36C0.666687 33.125 2.16669 30.5 4.66669 29.125V15ZM12.6667 15V29.125C13.7917 29.875 14.7917 30.875 15.5417 32H41.6667C42.4167 30.875 43.4167 29.875 44.6667 29.125V15C43.4167 14.25 42.4167 13.25 41.6667 12H15.5417C14.7917 13.25 13.7917 14.25 12.6667 15ZM39.5417 60C38.1667 62.5 35.5417 64 32.6667 64C28.1667 64 24.6667 60.5 24.6667 56C24.6667 53.125 26.1667 50.5 28.6667 49.125V44H36.6667V49.125C37.7917 49.875 38.7917 50.875 39.5417 52H65.6667C66.4167 50.875 67.4167 49.875 68.6667 49.125V35C67.4167 34.25 66.4167 33.25 65.6667 32H59.9167C59.2917 30.125 58.0417 28.5 56.6667 27.125V24H65.6667C67.0417 21.625 69.6667 20 72.6667 20C77.0417 20 80.6667 23.625 80.6667 28C80.6667 31 79.0417 33.625 76.6667 35V49.125C79.0417 50.5 80.6667 53.125 80.6667 56C80.6667 60.5 77.0417 64 72.6667 64C69.6667 64 67.0417 62.5 65.6667 60H39.5417Z" fill="#2563EB"/>
</svg>
