<svg width="65" height="66" viewBox="0 0 65 66" fill="none" xmlns="http://www.w3.org/2000/svg">
<path d="M29.3333 1.75C31.2083 0.875 33.3333 0.875 35.2083 1.75L62.5833 14.375C63.5833 14.875 64.3333 15.875 64.3333 17C64.3333 18.25 63.5833 19.25 62.5833 19.75L35.2083 32.375C33.3333 33.25 31.2083 33.25 29.3333 32.375L1.95831 19.75C0.958313 19.25 0.333313 18.25 0.333313 17C0.333313 15.875 0.958313 14.875 1.95831 14.375L29.3333 1.75ZM62.5833 30.375C63.5833 30.875 64.3333 31.875 64.3333 33C64.3333 34.25 63.5833 35.25 62.5833 35.75L35.2083 48.375C33.3333 49.25 31.2083 49.25 29.3333 48.375L1.95831 35.75C0.958313 35.25 0.333313 34.25 0.333313 33C0.333313 31.875 0.958313 30.875 1.95831 30.375L8.70831 27.25L27.7083 36C30.5833 37.375 33.9583 37.375 36.8333 36L55.8333 27.25L62.5833 30.375ZM36.8333 52L55.8333 43.25L62.5833 46.375C63.5833 46.875 64.3333 47.875 64.3333 49C64.3333 50.25 63.5833 51.25 62.5833 51.75L35.2083 64.375C33.3333 65.25 31.2083 65.25 29.3333 64.375L1.95831 51.75C0.958313 51.25 0.333313 50.25 0.333313 49C0.333313 47.875 0.958313 46.875 1.95831 46.375L8.70831 43.25L27.7083 52C30.5833 53.375 33.9583 53.375 36.8333 52Z" fill="#2563EB"/>
</svg>
