<svg width="64" height="48" viewBox="0 0 64 48" fill="none" xmlns="http://www.w3.org/2000/svg">
<path d="M1.52588e-05 4C1.52588e-05 1.875 1.75002 0 4.00002 0H52C54.125 0 56 1.875 56 4C56 6.25 54.125 8 52 8H4.00002C1.75002 8 1.52588e-05 6.25 1.52588e-05 4ZM8.00002 24C8.00002 21.875 9.75002 20 12 20H60C62.125 20 64 21.875 64 24C64 26.25 62.125 28 60 28H12C9.75002 28 8.00002 26.25 8.00002 24ZM52 48H4.00002C1.75002 48 1.52588e-05 46.25 1.52588e-05 44C1.52588e-05 41.875 1.75002 40 4.00002 40H52C54.125 40 56 41.875 56 44C56 46.25 54.125 48 52 48Z" fill="#2563EB"/>
</svg>
